<svg width="114" height="114" viewBox="0 0 114 114" fill="none" xmlns="http://www.w3.org/2000/svg">
<path d="M99.75 19H14.25C11.7304 19 9.31408 20.0009 7.53249 21.7825C5.75089 23.5641 4.75 25.9804 4.75 28.5V85.5C4.75 88.0196 5.75089 90.4359 7.53249 92.2175C9.31408 93.9991 11.7304 95 14.25 95H99.75C102.27 95 104.686 93.9991 106.468 92.2175C108.249 90.4359 109.25 88.0196 109.25 85.5V28.5C109.25 25.9804 108.249 23.5641 106.468 21.7825C104.686 20.0009 102.27 19 99.75 19ZM14.25 28.5H52.25V85.5H14.25V28.5ZM99.75 85.5H57V28.5H99.7643L99.75 85.5ZM95 64.125C95 62.8187 93.9313 61.75 92.625 61.75H87.875C86.5687 61.75 85.5 62.8187 85.5 64.125V78.375C85.5 79.6813 86.5687 80.75 87.875 80.75H92.625C93.9313 80.75 95 79.6813 95 78.375V64.125ZM80.75 35.625C80.75 34.3188 79.6813 33.25 78.375 33.25H64.125C62.8187 33.25 61.75 34.3188 61.75 35.625V59.375C61.75 60.6813 62.8187 61.75 64.125 61.75H78.375C79.6813 61.75 80.75 60.6813 80.75 59.375V35.625ZM87.875 47.5H92.625C93.9313 47.5 95 46.4312 95 45.125C95 43.8188 93.9313 42.75 92.625 42.75H87.875C86.5687 42.75 85.5 43.8188 85.5 45.125C85.5 46.4312 86.5687 47.5 87.875 47.5ZM87.875 57H92.625C93.9313 57 95 55.9313 95 54.625C95 53.3187 93.9313 52.25 92.625 52.25H87.875C86.5687 52.25 85.5 53.3187 85.5 54.625C85.5 55.9313 86.5687 57 87.875 57ZM64.125 71.25H78.375C79.6813 71.25 80.75 70.1813 80.75 68.875C80.75 67.5687 79.6813 66.5 78.375 66.5H64.125C62.8187 66.5 61.75 67.5687 61.75 68.875C61.75 70.1813 62.8187 71.25 64.125 71.25ZM78.375 76H64.125C62.8187 76 61.75 77.0687 61.75 78.375C61.75 79.6813 62.8187 80.75 64.125 80.75H78.375C79.6813 80.75 80.75 79.6813 80.75 78.375C80.75 77.0687 79.6813 76 78.375 76ZM87.875 38H92.625C93.9313 38 95 36.9312 95 35.625C95 34.3188 93.9313 33.25 92.625 33.25H87.875C86.5687 33.25 85.5 34.3188 85.5 35.625C85.5 36.9312 86.5687 38 87.875 38ZM47.5 35.625C47.5 34.3188 46.4313 33.25 45.125 33.25H21.375C20.0688 33.25 19 34.3188 19 35.625V49.875C19 51.1813 20.0688 52.25 21.375 52.25H45.125C46.4313 52.25 47.5 51.1813 47.5 49.875V35.625ZM45.1298 66.5H21.3797C20.0782 66.5 19.0047 67.5687 19.0047 68.875C19.0047 70.1813 20.0782 71.25 21.3797 71.25H45.1298C46.4313 71.25 47.5 70.1813 47.5 68.875C47.5 67.5687 46.4313 66.5 45.1298 66.5ZM45.1298 57H21.3797C20.0782 57 19.0047 58.0687 19.0047 59.375C19.0047 60.6813 20.0782 61.75 21.3797 61.75H45.1298C46.4313 61.75 47.5 60.6813 47.5 59.375C47.5 58.0687 46.4313 57 45.1298 57ZM45.1298 76H21.3797C20.0782 76 19.0047 77.0687 19.0047 78.375C19.0047 79.6813 20.0782 80.75 21.3797 80.75H45.1298C46.4313 80.75 47.5 79.6813 47.5 78.375C47.5 77.0687 46.4313 76 45.1298 76Z" fill="#E7E7E7"/>
</svg>
