<svg width="15" height="16" viewBox="0 0 15 16" fill="none" xmlns="http://www.w3.org/2000/svg">
<path d="M13.8333 15.75L8.58333 10.2375C8.16667 10.5875 7.6875 10.8646 7.14583 11.0687C6.60417 11.2729 6.02778 11.375 5.41667 11.375C3.90278 11.375 2.62167 10.8243 1.57333 9.723C0.525 8.62167 0.000555556 7.2765 0 5.6875C0 4.09792 0.524444 2.75275 1.57333 1.652C2.62222 0.55125 3.90333 0.000583333 5.41667 0C6.93056 0 8.21167 0.550667 9.26 1.652C10.3083 2.75333 10.8328 4.0985 10.8333 5.6875C10.8333 6.32917 10.7361 6.93437 10.5417 7.50312C10.3472 8.07187 10.0833 8.575 9.75 9.0125L15 14.525L13.8333 15.75ZM5.41667 9.625C6.45833 9.625 7.34389 9.24204 8.07333 8.47613C8.80278 7.71021 9.16722 6.78067 9.16667 5.6875C9.16667 4.59375 8.80194 3.66392 8.0725 2.898C7.34306 2.13208 6.45778 1.74942 5.41667 1.75C4.375 1.75 3.48944 2.13296 2.76 2.89888C2.03056 3.66479 1.66611 4.59433 1.66667 5.6875C1.66667 6.78125 2.03139 7.71108 2.76083 8.477C3.49028 9.24292 4.37556 9.62558 5.41667 9.625Z" fill="#616161"/>
</svg>
